<svg xmlns="http://www.w3.org/2000/svg" viewBox="0 0 174.61 201.47"><defs><style>.cls-1,.cls-2{fill:none;stroke:#34110a;stroke-miterlimit:10;}.cls-1{stroke-linecap:round;}</style></defs><g id="圖層_2" data-name="圖層 2"><g id="圖層_2-2" data-name="圖層 2"><line class="cls-1" x1="173.81" y1="50.44" x2="87.31" y2="0.5"/><line class="cls-1" x1="87.31" y1="200.97" x2="174.11" y2="150.85"/><line class="cls-1" x1="174.11" y1="50.62" x2="174.11" y2="150.85"/><line class="cls-1" x1="173.81" y1="50.44" x2="174.11" y2="50.62"/><polyline class="cls-1" points="0.5 50.62 0.5 50.62 0.5 150.85"/><line class="cls-2" x1="87.31" y1="100.56" x2="87.31" y2="100.73"/><line class="cls-1" x1="87.31" y1="0.5" x2="87.31" y2="100.56"/><line class="cls-1" x1="87.31" y1="200.97" x2="87.31" y2="100.73"/><line class="cls-2" x1="87.15" y1="100.65" x2="0.5" y2="150.85"/><line class="cls-1" x1="173.81" y1="50.44" x2="87.31" y2="100.56"/><line class="cls-2" x1="87.15" y1="100.65" x2="87.31" y2="100.56"/><line class="cls-2" x1="173.96" y1="50.35" x2="173.81" y2="50.44"/><line class="cls-1" x1="174.11" y1="150.85" x2="87.31" y2="100.73"/><line class="cls-1" x1="0.5" y1="50.62" x2="87.15" y2="100.65"/><line class="cls-2" x1="87.15" y1="100.65" x2="87.31" y2="100.73"/><line class="cls-2" x1="0.5" y1="50.62" x2="0.5" y2="50.62"/></g></g></svg>