<?xml version="1.0" encoding="utf-8"?>
<!-- Generator: Adobe Illustrator 25.2.0, SVG Export Plug-In . SVG Version: 6.00 Build 0)  -->
<svg version="1.1" id="圖層_1" xmlns="http://www.w3.org/2000/svg" xmlns:xlink="http://www.w3.org/1999/xlink" x="0px" y="0px"
	 viewBox="0 0 15.7 15.1" style="enable-background:new 0 0 15.7 15.1;" xml:space="preserve">
<style type="text/css">
	.st0{fill:none;stroke:#F2F2F2;stroke-width:0.25;stroke-miterlimit:10;}
	.st1{fill:none;stroke:#F2F2F2;stroke-width:0.25;stroke-linecap:round;stroke-miterlimit:10;}
</style>
<g>
	<path class="st0" d="M8,13.6"/>
	<path class="st0" d="M2.6,10.5"/>
	<path class="st0" d="M8,1.2"/>
	<path class="st0" d="M2.6,4.3"/>
	<line class="st1" x1="13.3" y1="4.3" x2="8" y2="1.2"/>
	<line class="st1" x1="8" y1="13.6" x2="13.4" y2="10.5"/>
	<line class="st1" x1="13.4" y1="4.3" x2="13.4" y2="10.5"/>
	<line class="st1" x1="13.3" y1="4.3" x2="13.4" y2="4.3"/>
	<polyline class="st1" points="2.6,4.3 2.6,4.3 2.6,10.5 	"/>
	<path class="st0" d="M8,13.6"/>
	<line class="st0" x1="8" y1="7.4" x2="8" y2="7.4"/>
	<line class="st1" x1="8" y1="1.2" x2="8" y2="7.4"/>
	<line class="st1" x1="8" y1="13.6" x2="8" y2="7.4"/>
	<path class="st0" d="M8,1.2"/>
	<path class="st0" d="M2.6,10.5"/>
	<line class="st0" x1="8" y1="7.4" x2="2.6" y2="10.5"/>
	<line class="st1" x1="13.3" y1="4.3" x2="8" y2="7.4"/>
	<line class="st0" x1="8" y1="7.4" x2="8" y2="7.4"/>
	<line class="st0" x1="13.4" y1="4.3" x2="13.3" y2="4.3"/>
	<path class="st0" d="M13.4,4.3"/>
	<path class="st0" d="M13.4,10.5"/>
	<line class="st1" x1="13.4" y1="10.5" x2="8" y2="7.4"/>
	<line class="st1" x1="2.6" y1="4.3" x2="8" y2="7.4"/>
	<line class="st0" x1="8" y1="7.4" x2="8" y2="7.4"/>
	<path class="st0" d="M2.6,4.3"/>
	<line class="st0" x1="2.6" y1="4.3" x2="2.6" y2="4.3"/>
</g>
</svg>
